<svg width="201" height="181" viewBox="0 0 201 181" fill="none" xmlns="http://www.w3.org/2000/svg">
<path d="M80.8332 10.3753C79.5173 8.75756 78.225 7.27971 76.6059 5.94802C66.7022 -1.45637 50.1646 -1.93884 43.0633 7.07361C41.2701 9.34936 40.286 11.2081 40.4353 14.0116C41.0852 17.9373 43.7069 20.7151 46.6402 23.2071C51.5113 26.7646 56.8086 27.1173 62.6354 26.436C64.2707 26.2137 65.8516 26.082 67.4988 26.0789L68.3266 26.0836C70.1676 26.0735 71.7256 26.0163 73.3652 26.9825C73.3652 26.9825 78.0694 30.1954 79.5137 33.3296C81.22 37.0324 81.3658 40.204 79.8233 43.7648C78.5148 46.2145 77.1424 48.379 74.2047 49.3459C70.6739 50.5079 69.3333 49.3748 64.9826 46.9899C59.391 43.9994 53.4121 42.9009 47.1905 44.7434C41.4109 47.0965 37.5163 50.4003 34.7136 55.9798C33.4522 58.579 32.2503 61.201 30.563 63.5565C28.0157 66.7672 24.4032 67.49 20.5264 68.0057C19.207 68.1772 17.8881 68.3453 16.5743 68.556C11.1381 69.9236 7.04205 73.8988 4.16781 78.5612C0.995502 84.424 -0.68088 91.8234 1.04117 98.3967C2.0031 101.087 3.71945 102.793 6.15323 104.211C8.35239 105.192 10.7849 104.531 12.9724 103.774C18.2371 101.625 21.7176 98.0122 23.9517 92.8195C25.2332 89.7377 26.5108 86.8133 28.5807 84.1642C31.7742 81.1527 35.5338 80.3288 39.8131 80.4529C43.2227 80.7707 46.6932 82.4303 48.9914 84.9646C50.4972 87.0533 50.9787 89.1874 50.192 91.7682C49.3901 94.3992 47.3619 95.4455 45.2575 96.7935C39.7593 100.276 35.8773 104.734 34.057 111.094C32.7934 117.953 34.1227 124.53 37.9404 130.336C39.4913 132.653 40.8517 134.897 41.8673 137.514C42.7339 140.431 42.1156 142.796 40.8169 145.467C40.5586 145.997 40.3041 146.529 40.053 147.063C37.7053 152.138 36.5857 157.804 38.5703 163.248L38.9861 164.206C40.1431 166.888 41.3834 169.306 43.401 171.438L44.1889 172.211C48.1882 176.141 52.2397 179.022 57.796 180.215C60.413 180.605 62.4249 180.135 64.5996 178.614C66.9326 176.44 68.0568 173.592 68.3141 170.425C68.3544 165.942 67.3601 162.595 64.2478 159.233C60.7611 155.56 57.672 152.104 56.5954 146.997C55.957 142.322 57.5664 137.771 60.2114 133.947C61.8221 131.987 63.326 130.787 65.8737 130.39C68.5332 130.289 70.8621 130.276 73.0041 132.189C75.2608 134.205 75.2969 137.016 75.5273 139.515C75.7101 142.799 76.0702 145.835 77.0062 148.998C79.0807 155.245 83.2811 158.92 89.0181 161.937L89.8379 162.355C94.4061 164.71 98.6084 165.169 103.668 165.075C104.63 165.057 105.592 165.042 106.555 165.03C107.169 165.024 107.783 165.017 108.398 165.01C109.41 164.989 110.257 164.82 111.424 165.007C114.592 165.514 116.414 167.362 118.178 169.684C119.214 171.063 120.282 172.335 121.519 173.54C126.343 178.052 131.992 180.087 138.615 179.904C144.675 179.462 150.588 177.103 154.796 172.64C156.426 170.564 156.941 168.556 156.648 165.807C156.174 161.367 152.418 159.341 149.005 157.301C145.189 155.423 140.177 155.667 136.162 156.802C133.013 157.714 129.781 157.83 126.571 157.126C123.158 156.007 121.073 154.367 119.253 151.275C117.766 148.125 117.519 143.922 118.628 140.594C119.8 138.391 120.906 136.699 123.363 135.633C127.032 134.043 128.595 135.312 133.376 137.774C137.697 139.914 141.421 140.509 146.218 140.344C151.809 140.013 157.729 137.273 161.51 133.074L162.251 132.189C164.538 129.655 165.983 127.244 167.225 124.088C168.128 121.743 168.938 119.404 170.28 117.271C172.502 114.663 174.814 113.503 178.159 112.954C183.536 112.164 188.68 110.813 192.72 106.957L193.467 106.176L194.29 105.319C198.608 100.398 200.556 93.204 200.335 86.7359L200.271 85.765C200.206 84.6571 200.073 83.6645 199.871 82.5634C198.813 79.39 197.405 76.512 193.952 75.3111C191.688 74.5236 189.943 74.3069 187.814 75.4096C187.338 75.6564 187.044 75.9124 186.664 76.16C182.223 79.0166 180.427 82.4283 178.818 87.3002C177.744 90.5529 176.431 93.5166 174.232 96.1705C171.185 99.3161 167.203 101.01 162.854 101.139L161.951 101.148C159.047 101.19 156.668 100.65 154.397 98.6969C152.482 96.9415 151.075 95.2148 150.795 92.3935C150.364 88.0473 152.62 87.0089 156.931 83.0433C160.692 79.4034 163.426 75.8766 165.203 70.9072C166.485 66.4694 166.463 61.2818 164.442 57.1016L164.027 56.2745C163.036 54.2931 162.008 52.4962 160.6 50.7716C158.915 48.7919 157.328 46.8201 156.234 44.4448C155.042 41.2454 155.112 38.8082 156.373 35.6386C158.299 30.9324 159.352 26.1762 158.374 21.106L157.849 19.7303C157.122 17.7175 156.37 15.7662 155.235 13.9444C151.291 8.63309 146.937 4.54188 139.666 3.48424C136.605 3.039 134.354 3.20542 132.26 4.66141C130.018 6.52546 128.851 8.08672 128.538 11.0163C128.406 15.0703 129.645 18.1702 132.371 21.156C136.023 25.0225 138.304 28.8929 139.439 34.1379C139.903 37.9868 137.013 44.9185 137.013 44.9185C137.013 44.9185 136.225 45.9993 135.837 46.5444C135.19 47.4227 135.247 47.2328 134.767 47.7405C134.115 48.429 133.836 48.5454 132.809 49.1098C131.568 49.7942 130.345 50.4084 129.034 50.9467C127.027 51.3301 125.556 51.1701 123.681 50.3714C121.167 47.918 120.836 44.9694 120.643 41.5808C120.363 35.0784 119.414 29.4764 115.356 24.2014C109.675 18.268 101.959 16.575 94.0401 16.3035C92.6277 16.2735 91.2213 16.2435 89.8129 16.1284C85.7719 15.4375 83.3528 13.4667 80.8332 10.3753Z" fill="black"/>
</svg>
