<svg width="201" height="181" viewBox="0 0 201 181" fill="none" xmlns="http://www.w3.org/2000/svg">
<path d="M80.8333 10.3729C79.5174 8.75512 78.2251 7.27727 76.6061 5.94558C66.7023 -1.45881 50.1647 -1.94128 43.0634 7.07117C41.2702 9.34692 40.2861 11.2057 40.4355 14.0092C41.0853 17.9349 43.707 20.7127 46.6403 23.2047C51.5115 26.7622 56.8087 27.1149 62.6355 26.4335C64.2708 26.2113 65.8517 26.0796 67.4989 26.0765L68.3267 26.0812C70.1678 26.071 71.7258 26.0139 73.3653 26.9801C73.3653 26.9801 78.0695 30.1929 79.5139 33.3272C81.2202 37.0299 81.3659 40.2016 79.8234 43.7624C78.5149 46.212 77.1425 48.3766 74.2048 49.3434C70.674 50.5054 69.3334 49.3723 64.9828 46.9875C59.3911 43.997 53.4123 42.8985 47.1906 44.741C41.411 47.0941 37.5164 50.3978 34.7137 55.9774C33.4524 58.5766 32.2504 61.1986 30.5631 63.554C28.0158 66.7647 24.4033 67.4876 20.5265 68.0033C19.2071 68.1747 17.8883 68.3428 16.5745 68.5535C11.1382 69.9211 7.04217 73.8963 4.16794 78.5588C0.995624 84.4216 -0.680758 91.8209 1.04129 98.3942C2.00322 101.084 3.71957 102.791 6.15336 104.208C8.35251 105.19 10.7851 104.529 12.9726 103.772C18.2373 101.623 21.7178 98.0098 23.9518 92.8171C25.2334 89.7352 26.5109 86.8108 28.5808 84.1618C31.7744 81.1503 35.5339 80.3264 39.8133 80.4504C43.2229 80.7682 46.6934 82.4278 48.9915 84.9622C50.4973 87.0508 50.9788 89.185 50.1922 91.7658C49.3903 94.3967 47.3621 95.4431 45.2576 96.7911C39.7595 100.274 35.8775 104.732 34.0571 111.092C32.7935 117.951 34.1228 124.527 37.9405 130.333C39.4914 132.651 40.8519 134.894 41.8675 137.512C42.734 140.428 42.1157 142.794 40.817 145.464C40.5587 145.995 40.3042 146.527 40.0531 147.061C37.7054 152.135 36.5858 157.802 38.5704 163.246L38.9863 164.204C40.1432 166.886 41.3835 169.303 43.4011 171.436L44.189 172.208C48.1884 176.139 52.2398 179.019 57.7962 180.212C60.4131 180.602 62.425 180.133 64.5998 178.611C66.9327 176.438 68.0569 173.589 68.3142 170.423C68.3545 165.939 67.3603 162.592 64.2479 159.23C60.7612 155.558 57.6721 152.102 56.5955 146.995C55.9571 142.32 57.5665 137.769 60.2115 133.944C61.8223 131.984 63.3261 130.785 65.8739 130.388C68.5333 130.286 70.8623 130.274 73.0042 132.187C75.2609 134.203 75.297 137.014 75.5274 139.513C75.7102 142.797 76.0703 145.833 77.0063 148.996C79.0808 155.242 83.2813 158.918 89.0182 161.935L89.838 162.353C94.4062 164.708 98.6086 165.166 103.668 165.073C104.63 165.054 105.592 165.04 106.555 165.028C107.169 165.021 107.783 165.014 108.398 165.007C109.41 164.987 110.257 164.817 111.424 165.004C114.592 165.512 116.414 167.359 118.178 169.682C119.214 171.061 120.282 172.332 121.519 173.537C126.343 178.05 131.992 180.084 138.615 179.901C144.675 179.46 150.588 177.1 154.796 172.638C156.426 170.562 156.942 168.554 156.648 165.805C156.174 161.364 152.418 159.339 149.005 157.299C145.189 155.42 140.177 155.665 136.162 156.8C133.013 157.712 129.782 157.828 126.571 157.124C123.158 156.005 121.073 154.365 119.254 151.272C117.766 148.122 117.519 143.919 118.628 140.591C119.801 138.389 120.906 136.696 123.363 135.631C127.032 134.04 128.595 135.309 133.377 137.771C137.698 139.911 141.421 140.506 146.218 140.341C151.809 140.01 157.729 137.271 161.51 133.072L162.251 132.187C164.538 129.653 165.983 127.242 167.225 124.086C168.128 121.741 168.938 119.401 170.28 117.268C172.502 114.66 174.814 113.501 178.16 112.952C183.536 112.162 188.68 110.81 192.72 106.955L193.468 106.173L194.29 105.317C198.608 100.396 200.556 93.2015 200.335 86.7334L200.271 85.7626C200.206 84.6546 200.073 83.6621 199.871 82.5609C198.813 79.3876 197.405 76.5096 193.952 75.3087C191.688 74.5211 189.943 74.3044 187.815 75.4072C187.338 75.6539 187.044 75.9099 186.664 76.1575C182.223 79.0142 180.427 82.4258 178.818 87.2978C177.745 90.5504 176.431 93.5141 174.232 96.1681C171.185 99.3136 167.203 101.008 162.855 101.137L161.951 101.146C159.047 101.187 156.669 100.647 154.397 98.6944C152.482 96.9391 151.075 95.2124 150.795 92.3911C150.364 88.0449 152.62 87.0065 156.931 83.0409C160.692 79.4009 163.427 75.8742 165.203 70.9048C166.485 66.4669 166.463 61.2794 164.442 57.0992L164.027 56.2721C163.036 54.2907 162.008 52.4938 160.6 50.7692C158.915 48.7895 157.329 46.8177 156.234 44.4424C155.042 41.2429 155.112 38.8057 156.373 35.6362C158.299 30.93 159.353 26.1738 158.374 21.1036L157.849 19.7278C157.122 17.7151 156.37 15.7637 155.235 13.942C151.291 8.63065 146.937 4.53944 139.666 3.4818C136.605 3.03656 134.354 3.20298 132.26 4.65897C130.018 6.52302 128.852 8.08428 128.538 11.0139C128.406 15.0679 129.645 18.1678 132.371 21.1536C136.024 25.02 138.304 28.8905 139.439 34.1354C139.903 37.9844 137.013 44.9161 137.013 44.9161C137.013 44.9161 136.225 45.9969 135.837 46.5419C135.191 47.4203 135.247 47.2304 134.767 47.738C134.115 48.4266 133.836 48.543 132.809 49.1074C131.568 49.7917 130.345 50.406 129.034 50.9443C127.027 51.3277 125.556 51.1677 123.681 50.369C121.168 47.9156 120.836 44.9669 120.643 41.5784C120.364 35.0759 119.414 29.4739 115.356 24.1989C109.675 18.2656 101.959 16.5725 94.0403 16.301C92.6279 16.2711 91.2214 16.2411 89.813 16.1259C85.772 15.4351 83.353 13.4642 80.8333 10.3729Z" fill="white"/>
</svg>
