<svg width="24" height="24" viewBox="0 0 24 24" fill="none" xmlns="http://www.w3.org/2000/svg">
  <path d="M12 2C10.5 2 9.2 2.8 8.5 4.1C7.3 3.6 5.9 4.1 5.3 5.3C4.1 5.9 3.6 7.3 4.1 8.5C2.8 9.2 2 10.5 2 12C2 13.5 2.8 14.8 4.1 15.5C3.6 16.7 4.1 18.1 5.3 18.7C5.9 19.9 7.3 20.4 8.5 19.9C9.2 21.2 10.5 22 12 22C13.5 22 14.8 21.2 15.5 19.9C16.7 20.4 18.1 19.9 18.7 18.7C19.9 18.1 20.4 16.7 19.9 15.5C21.2 14.8 22 13.5 22 12C22 10.5 21.2 9.2 19.9 8.5C20.4 7.3 19.9 5.9 18.7 5.3C18.1 4.1 16.7 3.6 15.5 4.1C14.8 2.8 13.5 2 12 2Z"
        fill="currentColor"
        opacity="0.8"/>
</svg>